<?xml version="1.0" encoding="UTF-8" standalone="no"?>
<!-- Created with Inkscape (http://www.inkscape.org/) -->

<svg
   xmlns:dc="http://purl.org/dc/elements/1.1/"
   xmlns:cc="http://creativecommons.org/ns#"
   xmlns:rdf="http://www.w3.org/1999/02/22-rdf-syntax-ns#"
   xmlns:svg="http://www.w3.org/2000/svg"
   xmlns="http://www.w3.org/2000/svg"
   xmlns:sodipodi="http://sodipodi.sourceforge.net/DTD/sodipodi-0.dtd"
   xmlns:inkscape="http://www.inkscape.org/namespaces/inkscape"
   width="16"
   height="16"
   viewBox="0 0 4.2333333 4.2333333"
   version="1.1"
   id="svg8"
   inkscape:version="0.92.5 (2060ec1f9f, 2020-04-08)"
   sodipodi:docname="trash.svg">
  <defs
     id="defs2" />
  <sodipodi:namedview
     id="base"
     pagecolor="#ffffff"
     bordercolor="#666666"
     borderopacity="1.0"
     inkscape:pageopacity="0.0"
     inkscape:pageshadow="2"
     inkscape:zoom="22.627417"
     inkscape:cx="9.2124268"
     inkscape:cy="8.42756"
     inkscape:document-units="mm"
     inkscape:current-layer="layer1"
     showgrid="false"
     inkscape:window-width="1366"
     inkscape:window-height="705"
     inkscape:window-x="-8"
     inkscape:window-y="-8"
     inkscape:window-maximized="1"
     units="px"
     showguides="true"
     inkscape:guide-bbox="true"
     inkscape:snap-global="false" />
  <metadata
     id="metadata5">
    <rdf:RDF>
      <cc:Work
         rdf:about="">
        <dc:format>image/svg+xml</dc:format>
        <dc:type
           rdf:resource="http://purl.org/dc/dcmitype/StillImage" />
        <dc:title></dc:title>
      </cc:Work>
    </rdf:RDF>
  </metadata>
  <g
     inkscape:label="Capa 1"
     inkscape:groupmode="layer"
     id="layer1"
     transform="translate(0,-292.76667)">
    <path
       style="fill:#000000;fill-opacity:0.71859292;stroke-width:0.184872"
       d="m 1.399322,292.78455 c -0.058904,0 -0.1064645,0.0442 -0.1064645,0.0987 v 0.61088 H 0.23906401 c -0.0589036,0 -0.10646468,0.0442 -0.10646468,0.0987 v 0.8326 c 0,0.0546 0.0475611,0.0987 0.10646468,0.0987 h 0.26151028 l 0.38244575,2.46472 H 3.3466951 l 0.3824457,-2.46472 H 3.99892 c 0.058906,0 0.1064646,-0.0442 0.1064646,-0.0987 v -0.8326 c 0,-0.0548 -0.04756,-0.0987 -0.1064646,-0.0987 H 2.9492612 v -0.61088 c 0,-0.0548 -0.04756,-0.0987 -0.1064645,-0.0987 z m 0.2744309,0.32508 H 2.568366 c 0.021462,0 0.038762,0.0157 0.038762,0.0357 v 0.30338 c 0,0.0199 -0.0173,0.0362 -0.038762,0.0362 H 1.6737529 c -0.021462,0 -0.038762,-0.0162 -0.038762,-0.0362 v -0.30338 c 0,-0.0199 0.0173,-0.0357 0.038762,-0.0357 z m -1.11271087,0.70959 H 3.676942 c 0.021462,0 0.038762,0.0163 0.038762,0.0362 v 0.30286 c 0,0.0199 -0.017299,0.0362 -0.038762,0.0362 H 0.56104203 c -0.0214616,0 -0.0387618,-0.0162 -0.0387618,-0.0362 v -0.30286 c 0,-0.0199 0.0172987,-0.0362 0.0387618,-0.0362 z m 0.28993527,0.70546 h 2.5277604 l -0.3317976,2.13757 -1.8636483,0.003 z m 0.4465315,0.21913 0.2341188,1.66571 h 0.3504031 l -0.2341189,-1.66571 z m 1.2925634,0 -0.2341187,1.66571 h 0.3504031 l 0.2341188,-1.66571 z"
       id="rect19"
       inkscape:connector-curvature="0" />
  </g>
</svg>
